
        <svg xmlns="http://www.w3.org/2000/svg" xmlns:xlink="http://www.w3.org/1999/xlink" version="1.1" width="1910.0908602081156" height="3119.3806787630074" viewBox="0 0 1910.0908602081156 3119.3806787630074">
			
			<g transform="scale(5.969033938150361) translate(10, 10)">
				<defs id="SvgjsDefs1028"/><g id="SvgjsG1029" featureKey="symbolGroupContainer" transform="matrix(1,0,0,1,30,0)" fill="#000"><rect xmlns="http://www.w3.org/2000/svg" width="240" height="235" rx="10" ry="10"/></g><g id="SvgjsG1030" featureKey="9id2mP-0" transform="matrix(2.6166703701019287,0,0,2.6166703701019287,17.099553434000505,-15.325054490674404)" fill="#ffffff"><path xmlns="http://www.w3.org/2000/svg" d="M88.9,83.3c-0.5-1.9-0.9-3.7-1.5-5.5c-0.6-1.8-1.2-3.6-1.9-5.4c-0.7-1.8-1.5-3.5-2.3-5.2c-0.8-1.7-1.7-3.4-2.6-5  c-0.9-1.7-1.9-3.3-2.9-4.9c-1-1.6-2-3.2-3.1-4.7c-2.1-3.1-4.5-6-6.9-8.8c-2.4-2.8-4.9-5.6-7.5-8.2c-2.6-2.6-5.3-5.2-7.9-7.7  c-5.4-5-11-9.7-16.6-14.4c2.4,2.8,4.8,5.5,7.2,8.3l7.2,8.2c2.4,2.7,4.7,5.5,7,8.3c2.3,2.8,4.5,5.7,6.6,8.6c2.1,2.9,4,5.9,5.9,8.9  c0.9,1.5,1.8,3,2.7,4.6c0.8,1.6,1.7,3.1,2.4,4.7c0.8,1.6,1.5,3.2,2.1,4.8c0.3,0.7,0.6,1.4,0.8,2.2l-3.1-2.9c-4.4-4-8.8-8-13.3-11.9  c-4.5-3.9-9.1-7.7-14-11.4c-2.4-1.8-4.9-3.6-7.7-5.3c-1.4-0.8-2.8-1.6-4.5-2.3c-0.9-0.4-1.8-0.7-3-0.9c-0.6-0.1-1.3-0.2-2.3-0.1  c-0.9,0.1-2.3,0.5-3.3,1.5l-0.1,0.1c-1.2,1.1-1.6,2.9-0.9,4.4c2.5,5.9,5.1,11.8,8.4,17.6c0.6,1.1,1.3,2.3,2,3.4  c-1-0.4-1.9-0.8-2.9-1.1c-3-1.1-6-2-9-2.8c-3-0.8-6-1.5-9-2.2l-0.1,0c-0.4-0.1-0.8,0-1.1,0.3c-0.7,0.7-1,1.7-1.1,2.6  c-0.1,0.9,0.1,1.7,0.3,2.5c0.4,1.5,1.1,2.8,1.8,4.1c1.5,2.5,3.3,4.7,5.1,6.9c-1.4-2.5-2.8-5-3.9-7.5c-0.5-1.3-1-2.6-1.2-3.9  c-0.1-0.6-0.1-1.2,0-1.8c0.1-0.2,0.1-0.4,0.2-0.6c2.6,1,5.3,1.9,7.9,3c1.4,0.6,2.8,1.2,4.2,1.7c1.4,0.6,2.8,1.2,4.1,1.8  c2.7,1.3,5.4,2.7,7.8,4.3c1.2,0.8,2.4,1.6,3.5,2.5c1.1,0.9,2.2,1.8,3.2,2.8c1.1,1.1,3,1.2,4.2,0.1c1.3-1.1,1.4-3.1,0.3-4.4l-0.1-0.2  c-1-1.1-1.9-2.3-2.8-3.5c-0.9-1.2-1.7-2.5-2.5-3.7c-0.8-1.3-1.6-2.6-2.3-3.9c-0.7-1.3-1.5-2.7-2.1-4.1c-1.4-2.7-2.6-5.6-3.9-8.4  c-0.1-0.2-0.1-0.3-0.2-0.5c1.9,1.3,3.9,2.7,5.8,4.2c4.6,3.5,9.1,7.3,13.5,11.1c4.5,3.8,8.9,7.7,13.3,11.6l6.7,5.9l3.4,2.9  c1.2,1,2.2,1.9,3.6,3l0.1,0.1c0.9,0.7,2,0.9,3.2,0.7C88.1,87.4,89.4,85.3,88.9,83.3z"/></g><g id="SvgjsG1031" featureKey="zfl5BF-0" transform="matrix(6.134967803955078,0,0,6.134967803955078,-1.840491479536573,219.17179063324346)" fill="#000"><path d="M6.48 20 l-0.78 -7.46 l-0.04 0 l-0.78 7.46 l-3.02 0 l-1.56 -14 l2.14 0 l1.16 11.04 l0.04 0 l1.04 -11.04 l2.12 0 l1.08 11.12 l0.04 0 l1.12 -11.12 l1.92 0 l-1.56 14 l-2.92 0 z M18.9 20 l-2.24 0 c-0.12 -0.36 -0.2 -0.58 -0.2 -1.72 l0 -2.2 c0 -1.3 -0.44 -1.78 -1.44 -1.78 l-0.76 0 l0 5.7 l-2.2 0 l0 -14 l3.32 0 c2.28 0 3.26 1.06 3.26 3.22 l0 1.1 c0 1.44 -0.46 2.36 -1.44 2.82 l0 0.04 c1.1 0.46 1.46 1.5 1.46 2.96 l0 2.16 c0 0.68 0.02 1.18 0.24 1.7 z M15.32 8 l-1.06 0 l0 4.3 l0.86 0 c0.82 0 1.32 -0.36 1.32 -1.48 l0 -1.38 c0 -1 -0.34 -1.44 -1.12 -1.44 z M21.96 20 l0 -4.64 l-2.78 -9.36 l2.3 0 l1.66 6.38 l0.04 0 l1.66 -6.38 l2.1 0 l-2.78 9.36 l0 4.64 l-2.2 0 z M27.180000000000003 8 l0 -2 l6.8 0 l0 2 l-2.3 0 l0 12 l-2.2 0 l0 -12 l-2.3 0 z M41.78 20 l-2.24 0 c-0.12 -0.36 -0.2 -0.58 -0.2 -1.72 l0 -2.2 c0 -1.3 -0.44 -1.78 -1.44 -1.78 l-0.76 0 l0 5.7 l-2.2 0 l0 -14 l3.32 0 c2.28 0 3.26 1.06 3.26 3.22 l0 1.1 c0 1.44 -0.46 2.36 -1.44 2.82 l0 0.04 c1.1 0.46 1.46 1.5 1.46 2.96 l0 2.16 c0 0.68 0.02 1.18 0.24 1.7 z M38.2 8 l-1.06 0 l0 4.3 l0.86 0 c0.82 0 1.32 -0.36 1.32 -1.48 l0 -1.38 c0 -1 -0.34 -1.44 -1.12 -1.44 z M42.7 9.36 c0 -2.24 1.1 -3.52 3.24 -3.52 s3.24 1.28 3.24 3.52 l0 0.44 l-2.08 0 l0 -0.58 c0 -1 -0.4 -1.38 -1.1 -1.38 s-1.1 0.38 -1.1 1.38 c0 1.02 0.44 1.78 1.88 3.04 c1.84 1.62 2.42 2.78 2.42 4.38 c0 2.24 -1.12 3.52 -3.28 3.52 s-3.28 -1.28 -3.28 -3.52 l0 -0.86 l2.08 0 l0 1 c0 1 0.44 1.36 1.14 1.36 s1.14 -0.36 1.14 -1.36 c0 -1.02 -0.44 -1.78 -1.88 -3.04 c-1.84 -1.62 -2.42 -2.78 -2.42 -4.38 z"/></g><g id="SvgjsG1032" featureKey="zfl5BF-1" transform="matrix(7.932310104370117,0,0,7.932310104370117,-6.34584968137396,306.6753185075235)" fill="#000"><path d="M4.12 6 c2.28 0 3.26 1.06 3.26 3.22 l0 0.5 c0 1.44 -0.44 2.34 -1.42 2.8 l0 0.04 c1.18 0.46 1.64 1.5 1.64 2.98 l0 1.14 c0 2.16 -1.14 3.32 -3.34 3.32 l-3.46 0 l0 -14 l3.32 0 z M3.98 13.7 l-0.98 0 l0 4.3 l1.26 0 c0.74 0 1.14 -0.34 1.14 -1.38 l0 -1.22 c0 -1.3 -0.42 -1.7 -1.42 -1.7 z M4.06 8 l-1.06 0 l0 3.7 l0.86 0 c0.82 0 1.32 -0.36 1.32 -1.48 l0 -0.78 c0 -1 -0.34 -1.44 -1.12 -1.44 z M8.920000000000002 20 l0 -14 l2.2 0 l0 12 l3.62 0 l0 2 l-5.82 0 z M17.720000000000002 9.22 l0 7.56 c0 1 0.44 1.38 1.14 1.38 s1.14 -0.38 1.14 -1.38 l0 -7.56 c0 -1 -0.44 -1.38 -1.14 -1.38 s-1.14 0.38 -1.14 1.38 z M15.520000000000001 16.64 l0 -7.28 c0 -2.24 1.18 -3.52 3.34 -3.52 s3.34 1.28 3.34 3.52 l0 7.28 c0 2.24 -1.18 3.52 -3.34 3.52 s-3.34 -1.28 -3.34 -3.52 z M27.92 14.780000000000001 l2.08 0 l0 1.86 c0 2.24 -1.12 3.52 -3.28 3.52 s-3.28 -1.28 -3.28 -3.52 l0 -7.28 c0 -2.24 1.12 -3.52 3.28 -3.52 s3.28 1.28 3.28 3.52 l0 1.36 l-2.08 0 l0 -1.5 c0 -1 -0.44 -1.38 -1.14 -1.38 s-1.14 0.38 -1.14 1.38 l0 7.56 c0 1 0.44 1.36 1.14 1.36 s1.14 -0.36 1.14 -1.36 l0 -2 z M36.36 20 l-2.14 -5.58 l-0.68 1.28 l0 4.3 l-2.2 0 l0 -14 l2.2 0 l0 6.06 l0.04 0 l2.84 -6.06 l2.2 0 l-3.06 6.24 l3.06 7.76 l-2.26 0 z"/></g><g id="SvgjsG1033" featureKey="pYXC9J-0" transform="matrix(1.115179419517517,0,0,1.115179419517517,28.951732808444675,479.88883854903816)" fill="#000"><path d="M8.32 5.48 c1 0 1.9367 0.18664 2.81 0.55998 s1.59 0.92 2.15 1.64 l-1.6 1.22 c-0.86666 -1.08 -2.0066 -1.62 -3.42 -1.62 c-1.5333 0 -2.7966 0.54666 -3.79 1.64 s-1.49 2.4666 -1.49 4.12 c0 1.6 0.49 2.92 1.47 3.96 s2.25 1.56 3.81 1.56 s2.7934 -0.63334 3.7 -1.9 l1.62 1.22 c-0.56 0.74666 -1.3067 1.3467 -2.24 1.8 s-1.9733 0.68 -3.12 0.68 c-1.36 0 -2.5934 -0.33 -3.7 -0.99 s-1.98 -1.5667 -2.62 -2.72 s-0.96 -2.3634 -0.96 -3.63 c0 -2.1866 0.68666 -3.99 2.06 -5.41 s3.1466 -2.13 5.32 -2.13 z M24.604 5.84 c1.3867 0 2.4734 0.34666 3.26 1.04 s1.18 1.6667 1.18 2.92 c0 0.94666 -0.32334 1.7733 -0.97 2.48 s-1.4767 1.1267 -2.49 1.26 l-0.02 0 l4.02 6.46 l-2.4 0 l-3.6 -6.24 l-2.14 0 l0 6.24 l-1.92 0 l0 -14.16 l5.08 0 z M24.044 12.08 c1 0 1.7433 -0.18336 2.23 -0.55002 s0.73 -0.94332 0.73 -1.73 c0 -1.52 -0.98666 -2.28 -2.96 -2.28 l-2.6 0 l0 4.56 l2.6 0 z M39.108000000000004 5.6 c1.2133 0 2.2034 0.33334 2.97 1 s1.1567 1.5133 1.17 2.54 c0 0.81334 -0.19666 1.51 -0.59 2.09 s-0.93668 0.97666 -1.63 1.19 l0 0.06 c0.84 0.24 1.4967 0.66666 1.97 1.28 s0.71668 1.34 0.73002 2.18 c0 1.2933 -0.43334 2.33 -1.3 3.11 s-1.9733 1.1767 -3.32 1.19 c-1.3333 0 -2.4334 -0.39 -3.3 -1.17 s-1.3067 -1.8233 -1.32 -3.13 c0 -0.82666 0.23666 -1.55 0.71 -2.17 s1.1367 -1.05 1.99 -1.29 l0 -0.06 c-0.69334 -0.2 -1.2367 -0.6 -1.63 -1.2 s-0.59 -1.2933 -0.59 -2.08 c0 -1.0267 0.40334 -1.8733 1.21 -2.54 s1.7833 -1 2.93 -1 z M36.888000000000005 9.4 c0 0.61334 0.21002 1.14 0.63002 1.58 s0.95 0.66 1.59 0.66 c0.68 0 1.22 -0.21334 1.62 -0.64 s0.6 -0.96 0.6 -1.6 c0 -0.68 -0.20666 -1.2233 -0.62 -1.63 s-0.95334 -0.61 -1.62 -0.61 c-0.62666 0 -1.1467 0.21334 -1.56 0.64 s-0.62668 0.96 -0.64002 1.6 z M36.408 15.940000000000001 c0 0.76 0.25336 1.3867 0.76002 1.88 s1.1533 0.74 1.94 0.74 s1.43 -0.24334 1.93 -0.73 s0.75666 -1.1167 0.77 -1.89 c0 -0.84 -0.25666 -1.4867 -0.77 -1.94 s-1.1633 -0.68 -1.95 -0.68 c-0.77334 0 -1.4133 0.25334 -1.92 0.76 s-0.76 1.1267 -0.76 1.86 z M59.552 5.84 l0 1.8 l-4.56 0 l0 12.36 l-1.92 0 l0 -12.36 l-4.56 0 l0 -1.8 l11.04 0 z M65.496 5.84 l4.16 11.52 l0.04 0 l4.32 -11.52 l2.1 0 l-5.58 14.16 l-1.8 0 l-5.46 -14.16 l2.22 0 z M97.124 5.48 c1 0 1.9367 0.18664 2.81 0.55998 s1.59 0.92 2.15 1.64 l-1.6 1.22 c-0.86666 -1.08 -2.0066 -1.62 -3.42 -1.62 c-1.5333 0 -2.7966 0.54666 -3.79 1.64 s-1.49 2.4666 -1.49 4.12 c0 1.6 0.49 2.92 1.47 3.96 s2.25 1.56 3.81 1.56 s2.7934 -0.63334 3.7 -1.9 l1.62 1.22 c-0.56 0.74666 -1.3067 1.3467 -2.24 1.8 s-1.9733 0.68 -3.12 0.68 c-1.36 0 -2.5934 -0.33 -3.7 -0.99 s-1.98 -1.5667 -2.62 -2.72 s-0.96 -2.3634 -0.96 -3.63 c0 -2.1866 0.68666 -3.99 2.06 -5.41 s3.1466 -2.13 5.32 -2.13 z M114.828 5.48 c2.1066 0 3.8634 0.69998 5.27 2.1 s2.11 3.18 2.11 5.34 c0 1.3733 -0.31334 2.63 -0.94 3.77 s-1.51 2.0366 -2.65 2.69 s-2.4034 0.98 -3.79 0.98 c-1.3733 0 -2.6266 -0.32334 -3.76 -0.97 s-2.02 -1.54 -2.66 -2.68 s-0.96 -2.4034 -0.96 -3.79 c0 -2.1066 0.69 -3.8734 2.07 -5.3 s3.15 -2.14 5.31 -2.14 z M109.48800000000001 12.92 c0 1.6 0.49998 2.94 1.5 4.02 s2.28 1.62 3.84 1.62 c1.5333 0 2.8066 -0.53334 3.82 -1.6 s1.52 -2.4134 1.52 -4.04 c0 -1.6133 -0.5 -2.9566 -1.5 -4.03 s-2.2866 -1.61 -3.86 -1.61 c-1.52 0 -2.7866 0.53334 -3.8 1.6 s-1.52 2.4134 -1.52 4.04 z M130.51200000000003 5.84 l0 12.36 l6.5 0 l0 1.8 l-8.42 0 l0 -14.16 l1.92 0 z M144.51600000000002 5.84 l0 12.36 l6.5 0 l0 1.8 l-8.42 0 l0 -14.16 l1.92 0 z M165.74 5.84 l0 1.8 l-7.22 0 l0 4.22 l6.72 0 l0 1.8 l-6.72 0 l0 4.54 l7.58 0 l0 1.8 l-9.5 0 l0 -14.16 l9.14 0 z M178.944 5.48 c1 0 1.9367 0.18664 2.81 0.55998 s1.59 0.92 2.15 1.64 l-1.6 1.22 c-0.86666 -1.08 -2.0066 -1.62 -3.42 -1.62 c-1.5333 0 -2.7966 0.54666 -3.79 1.64 s-1.49 2.4666 -1.49 4.12 c0 1.6 0.49 2.92 1.47 3.96 s2.25 1.56 3.81 1.56 s2.7934 -0.63334 3.7 -1.9 l1.62 1.22 c-0.56 0.74666 -1.3067 1.3467 -2.24 1.8 s-1.9733 0.68 -3.12 0.68 c-1.36 0 -2.5934 -0.33 -3.7 -0.99 s-1.98 -1.5667 -2.62 -2.72 s-0.96 -2.3634 -0.96 -3.63 c0 -2.1866 0.68666 -3.99 2.06 -5.41 s3.1466 -2.13 5.32 -2.13 z M199.588 5.84 l0 1.8 l-4.56 0 l0 12.36 l-1.92 0 l0 -12.36 l-4.56 0 l0 -1.8 l11.04 0 z M205.532 5.84 l4.16 11.52 l0.04 0 l4.32 -11.52 l2.1 0 l-5.58 14.16 l-1.8 0 l-5.46 -14.16 l2.22 0 z"/></g>
			</g>
		</svg>
	